<svg xmlns="http://www.w3.org/2000/svg" width="149" height="150" viewBox="0 0 149 149"><path d="M60.086 148.277c-13.027-2.695-25.18-8.714-34.719-17.187C.871 109.336-6.699 75.16 6.242 44.75c3.176-7.465 8.344-15.043 14.742-21.629l5.645-5.805.398 33.973c.38 32.52.465 34.16 2.004 38.258 3.078 8.195 6.375 13.418 12.055 19.074 14.672 14.61 36.191 18.254 54.484 9.23 17.196-8.484 28.035-26.93 26.778-45.558-.848-12.516-5.055-21.691-14.141-30.836-6.871-6.914-14.957-11.43-23.758-13.273-8.953-1.872-8.523-2.149-8.523 5.433v6.543l4.906.903c19.012 3.503 31.586 22.175 27.625 41.015-1.266 6.016-4.09 11.332-8.621 16.227-6.887 7.437-16.574 10.992-25.035 10.976-13.992-.027-25.672-7.976-31.332-19.73 0 0-1.485-3.364-1.961-5.438-2.805-12.21-1.012-37.918-1.012-37.918l-.219-37.582 2.22-1.148c1.222-.633 2.39-1.149 2.6-1.149.212 0 .477 17.262.594 38.364 0 0-2.695 27.656.637 38.254.48 1.53 1.39 4.148 1.39 4.148 2.919 5.945 7.598 11.176 13.677 14.055 4.613 2.187 6.937 3.175 13.761 3.175 4.461 0 8.414-1.41 12.957-3.5 5.36-2.464 11.508-9 13.782-14.964 6.257-16.442-2.457-34.13-19.247-39.059-6.863-2.016-6.722-2.129-6.722 5.332v6.52l3.293.882c11.875 3.176 15.496 19.09 6.176 27.266-3.293 2.89-6.262 4.168-11.454 4.168-5.546 0-10.87-3.36-13.609-8.508-1.64-3.094-1.781-6.027-1.781-7.37 0-12.415-.27-34.74-.27-34.74L58.06 2.048l1.707-.422c.937-.234 4.726-.809 8.418-1.281 12.53-1.598 31.062 2.5 43.515 9.625 16.977 9.715 29.82 26.398 35.168 45.683 1.84 6.633 2.043 8.563 2.043 19.235 0 10.625-.207 12.617-2.008 19.105-7.273 26.211-25.777 44.95-52.234 52.895-5.57 1.672-8.176 1.992-18.004 2.199-7.926.172-13.066-.082-16.578-.809m0 0" style="stroke:none;fill-rule:nonzero;fill:rgb(0,200,0);fill-opacity:1"/></svg>
